<svg xmlns="http://www.w3.org/2000/svg" xmlns:xlink="http://www.w3.org/1999/xlink" version="1.1" style="" xml:space="preserve" width="512" height="512"><rect id="backgroundrect" width="100%" height="100%" x="0" y="0" fill="none" stroke="none"/>


















<g class="currentLayer" style=""><title>Layer 1</title><g id="svg_1" class="" fill="#1d5593" fill-opacity="1">
	<g id="svg_2" fill="#1d5593" fill-opacity="1">
		<path d="M505.9912352590561,406.394 L295.9772352590561,58.102 c-8.274000000000001,-13.721 -23.367,-22.245 -39.39,-22.245 c-16.023,0 -31.116,8.524000000000001 -39.391,22.246 L7.183235259056091,406.394 c-8.551,14.182 -8.804,31.95 -0.6610000000000001,46.37 c8.145,14.42 23.491,23.378 40.051,23.378 h420.028 c16.56,0 31.907,-8.958 40.052,-23.379 C514.7962352590561,438.342 514.5432352590561,420.574 505.9912352590561,406.394 zM477.6272352590561,436.372 c-2.242,3.9690000000000003 -6.467,6.436 -11.026,6.436 H46.57323525905609 c-4.559,0 -8.784,-2.466 -11.025,-6.4350000000000005 c-2.242,-3.9699999999999998 -2.172,-8.862 0.18100000000000002,-12.765 L245.7442352590561,75.316 c2.278,-3.777 6.433,-6.124 10.844,-6.124 c4.41,0 8.565,2.347 10.843,6.124 l210.013,348.292 C479.7992352590561,427.512 479.8692352590561,432.403 477.6272352590561,436.372 z" id="svg_3" fill="#1d5593" fill-opacity="1"/>
	</g>
</g><g id="svg_4" class="" fill="#1d5593" fill-opacity="1">
	<g id="svg_5" fill="#1d5593" fill-opacity="1">
		<path d="M256.154,173.005c-12.68,0-22.576,6.804-22.576,18.866c0,36.802,4.329,89.686,4.329,126.489    c0.001,9.587,8.352,13.607,18.248,13.607c7.422,0,17.937-4.02,17.937-13.607c0-36.802,4.329-89.686,4.329-126.489    C278.421,179.81,268.216,173.005,256.154,173.005z" id="svg_6" fill="#1d5593" fill-opacity="1"/>
	</g>
</g><g id="svg_7" class="" fill="#1d5593" fill-opacity="1">
	<g id="svg_8" fill="#1d5593" fill-opacity="1">
		<path d="M256.465,353.306c-13.607,0-23.814,10.824-23.814,23.814c0,12.68,10.206,23.814,23.814,23.814    c12.68,0,23.505-11.134,23.505-23.814C279.97,364.13,269.144,353.306,256.465,353.306z" id="svg_9" fill="#1d5593" fill-opacity="1"/>
	</g>
</g><g id="svg_10">
</g><g id="svg_11">
</g><g id="svg_12">
</g><g id="svg_13">
</g><g id="svg_14">
</g><g id="svg_15">
</g><g id="svg_16">
</g><g id="svg_17">
</g><g id="svg_18">
</g><g id="svg_19">
</g><g id="svg_20">
</g><g id="svg_21">
</g><g id="svg_22">
</g><g id="svg_23">
</g><g id="svg_24">
</g></g></svg>