<svg xmlns="http://www.w3.org/2000/svg" xmlns:xlink="http://www.w3.org/1999/xlink" version="1.1" style="" xml:space="preserve" width="480" height="480"><rect id="backgroundrect" width="100%" height="100%" x="0" y="0" fill="none" stroke="none"/>































<g class="currentLayer" style=""><title>Layer 1</title><g id="svg_1" class="selected" fill-opacity="1" fill="#ffffff">
	<g id="svg_2" fill="#ffffff">
		<path d="M176,0c-35.33,0.04-63.96,28.67-64,64v288H8c-4.418,0-8,3.582-8,8v56c0.04,35.33,28.67,63.96,64,64h312v-0.496    c31.979-4.075,55.957-31.266,56-63.504V64c0.031-26.497,21.503-47.969,48-48V0H176z M64,464c-26.497-0.031-47.969-21.503-48-48    v-48h288v48c-0.007,18.379,7.905,35.87,21.712,48H64z M416,64v352c0,26.51-21.49,48-48,48c-26.51,0-48-21.49-48-48v-56    c0-4.418-3.582-8-8-8H128V64c0.031-26.497,21.503-47.969,48-48h261.808C423.959,28.108,416.01,45.604,416,64z" id="svg_3" fill="#ffffff"/>
	</g>
</g><g id="svg_4" class="selected" fill-opacity="1" fill="#ffffff">
	<g id="svg_5" fill="#ffffff">
		<rect x="192" y="32" width="160" height="16" id="svg_6" fill="#ffffff"/>
	</g>
</g><g id="svg_7" class="selected" fill-opacity="1" fill="#ffffff">
	<g id="svg_8" fill="#ffffff">
		<rect x="144" y="64" width="256" height="16" id="svg_9" fill="#ffffff"/>
	</g>
</g><g id="svg_10" class="selected" fill-opacity="1" fill="#ffffff">
	<g id="svg_11" fill="#ffffff">
		<rect x="160" y="112" width="80" height="16" id="svg_12" fill="#ffffff"/>
	</g>
</g><g id="svg_13" class="selected" fill-opacity="1" fill="#ffffff">
	<g id="svg_14" fill="#ffffff">
		<rect x="160" y="144" width="64" height="16" id="svg_15" fill="#ffffff"/>
	</g>
</g><g id="svg_16" class="selected" fill-opacity="1" fill="#ffffff">
	<g id="svg_17" fill="#ffffff">
		<rect x="160" y="176" width="96" height="16" id="svg_18" fill="#ffffff"/>
	</g>
</g><g id="svg_19" class="selected" fill-opacity="1" fill="#ffffff">
	<g id="svg_20" fill="#ffffff">
		<rect x="160" y="208" width="48" height="16" id="svg_21" fill="#ffffff"/>
	</g>
</g><g id="svg_22" class="selected" fill-opacity="1" fill="#ffffff">
	<g id="svg_23" fill="#ffffff">
		<rect x="160" y="240" width="80" height="16" id="svg_24" fill="#ffffff"/>
	</g>
</g><g id="svg_25" class="selected" fill-opacity="1" fill="#ffffff">
	<g id="svg_26" fill="#ffffff">
		<rect x="352" y="112" width="32" height="16" id="svg_27" fill="#ffffff"/>
	</g>
</g><g id="svg_28" class="selected" fill-opacity="1" fill="#ffffff">
	<g id="svg_29" fill="#ffffff">
		<rect x="352" y="144" width="32" height="16" id="svg_30" fill="#ffffff"/>
	</g>
</g><g id="svg_31" class="selected" fill-opacity="1" fill="#ffffff">
	<g id="svg_32" fill="#ffffff">
		<rect x="352" y="176" width="32" height="16" id="svg_33" fill="#ffffff"/>
	</g>
</g><g id="svg_34" class="selected" fill-opacity="1" fill="#ffffff">
	<g id="svg_35" fill="#ffffff">
		<rect x="352" y="208" width="32" height="16" id="svg_36" fill="#ffffff"/>
	</g>
</g><g id="svg_37" class="selected" fill-opacity="1" fill="#ffffff">
	<g id="svg_38" fill="#ffffff">
		<rect x="352" y="240" width="32" height="16" id="svg_39" fill="#ffffff"/>
	</g>
</g><g id="svg_40" class="selected" fill-opacity="1" fill="#ffffff">
	<g id="svg_41" fill="#ffffff">
		<path d="M400,352v-8c0-13.255-10.745-24-24-24v-16h-16v16c-13.255,0-24,10.745-24,24v16c0,13.255,10.745,24,24,24h16    c4.418,0,8,3.582,8,8v16c0,4.418-3.582,8-8,8h-16c-4.418,0-8-3.582-8-8v-8h-16v8c0,13.255,10.745,24,24,24v16h16v-16    c13.255,0,24-10.745,24-24v-16c0-13.255-10.745-24-24-24h-16c-4.418,0-8-3.582-8-8v-16c0-4.418,3.582-8,8-8h16    c4.418,0,8,3.582,8,8v8H400z" id="svg_42" fill="#ffffff"/>
	</g>
</g><g id="svg_43" class="selected" fill-opacity="1" fill="#ffffff">
	<g id="svg_44" fill="#ffffff">
		<rect x="160" y="320" width="128" height="16" id="svg_45" fill="#ffffff"/>
	</g>
</g><g id="svg_46" class="selected" fill-opacity="1" fill="#ffffff">
	<g id="svg_47" fill="#ffffff">
		<rect x="160" y="288" width="128" height="16" id="svg_48" fill="#ffffff"/>
	</g>
</g><g id="svg_49" class="selected" fill-opacity="1" fill="#ffffff">
</g><g id="svg_50" class="selected" fill-opacity="1" fill="#ffffff">
</g><g id="svg_51" class="selected" fill-opacity="1" fill="#ffffff">
</g><g id="svg_52" class="selected" fill-opacity="1" fill="#ffffff">
</g><g id="svg_53" class="selected" fill-opacity="1" fill="#ffffff">
</g><g id="svg_54" class="selected" fill-opacity="1" fill="#ffffff">
</g><g id="svg_55" class="selected" fill-opacity="1" fill="#ffffff">
</g><g id="svg_56" class="selected" fill-opacity="1" fill="#ffffff">
</g><g id="svg_57" class="selected" fill-opacity="1" fill="#ffffff">
</g><g id="svg_58" class="selected" fill-opacity="1" fill="#ffffff">
</g><g id="svg_59" class="selected" fill-opacity="1" fill="#ffffff">
</g><g id="svg_60" class="selected" fill-opacity="1" fill="#ffffff">
</g><g id="svg_61" class="selected" fill-opacity="1" fill="#ffffff">
</g><g id="svg_62" class="selected" fill-opacity="1" fill="#ffffff">
</g><g id="svg_63" class="selected" fill-opacity="1" fill="#ffffff">
</g></g></svg>