<svg xmlns="http://www.w3.org/2000/svg" xmlns:xlink="http://www.w3.org/1999/xlink" version="1.1" width="284.936" height="284.936" style="" xml:space="preserve"><rect id="backgroundrect" width="100%" height="100%" x="0" y="0" fill="none" stroke="none"/>
















<g class="currentLayer" style=""><title>Layer 1</title><g id="svg_1" class="selected" fill-opacity="1" fill="#919096">
	<g id="svg_2" fill="#919096" fill-opacity="1">
		<path d="M277.515,135.9L144.464,2.857C142.565,0.955,140.375,0,137.9,0c-2.472,0-4.659,0.955-6.562,2.857l-14.277,14.275    c-1.903,1.903-2.853,4.089-2.853,6.567c0,2.478,0.95,4.664,2.853,6.567l112.207,112.204L117.062,254.677    c-1.903,1.903-2.853,4.093-2.853,6.564c0,2.477,0.95,4.667,2.853,6.57l14.277,14.271c1.902,1.905,4.089,2.854,6.562,2.854    c2.478,0,4.665-0.951,6.563-2.854l133.051-133.044c1.902-1.902,2.851-4.093,2.851-6.567S279.417,137.807,277.515,135.9z" id="svg_3" fill="#919096" fill-opacity="1"/>
		<path d="M170.732,142.471c0-2.474-0.947-4.665-2.857-6.571L34.833,2.857C32.931,0.955,30.741,0,28.267,0s-4.665,0.955-6.567,2.857    L7.426,17.133C5.52,19.036,4.57,21.222,4.57,23.7c0,2.478,0.95,4.664,2.856,6.567L119.63,142.471L7.426,254.677    c-1.906,1.903-2.856,4.093-2.856,6.564c0,2.477,0.95,4.667,2.856,6.57l14.273,14.271c1.903,1.905,4.093,2.854,6.567,2.854    s4.664-0.951,6.567-2.854l133.042-133.044C169.785,147.136,170.732,144.945,170.732,142.471z" id="svg_4" fill="#919096" fill-opacity="1"/>
	</g>
</g><g id="svg_5" class="selected" fill-opacity="1" fill="#919096">
</g><g id="svg_6" class="selected" fill-opacity="1" fill="#919096">
</g><g id="svg_7" class="selected" fill-opacity="1" fill="#919096">
</g><g id="svg_8" class="selected" fill-opacity="1" fill="#919096">
</g><g id="svg_9" class="selected" fill-opacity="1" fill="#919096">
</g><g id="svg_10" class="selected" fill-opacity="1" fill="#919096">
</g><g id="svg_11" class="selected" fill-opacity="1" fill="#919096">
</g><g id="svg_12" class="selected" fill-opacity="1" fill="#919096">
</g><g id="svg_13" class="selected" fill-opacity="1" fill="#919096">
</g><g id="svg_14" class="selected" fill-opacity="1" fill="#919096">
</g><g id="svg_15" class="selected" fill-opacity="1" fill="#919096">
</g><g id="svg_16" class="selected" fill-opacity="1" fill="#919096">
</g><g id="svg_17" class="selected" fill-opacity="1" fill="#919096">
</g><g id="svg_18" class="selected" fill-opacity="1" fill="#919096">
</g><g id="svg_19" class="selected" fill-opacity="1" fill="#919096">
</g></g></svg>